<?xml version="1.0" encoding="UTF-8"?>
<svg preserveAspectRatio="xMidYMid" viewBox="0 0 64.31 54.59" xmlns="http://www.w3.org/2000/svg">
<path fill="#ff0000" d="m61.295 46.491h-22.828l1.507 6.066h3.235c0.555 0 1.005 0.453 1.005 1.01 0 0.56-0.45 1.012-1.005 1.012h-22.105c-0.555 0-1.005-0.452-1.005-1.012 0-0.557 0.45-1.01 1.005-1.01h3.234l1.508-6.066h-22.828c-1.662 0-3.014-1.359-3.014-3.031v-40.434c0-1.673 1.352-3.033 3.014-3.033h58.277c1.662 0 3.014 1.36 3.014 3.033v40.434c0 1.672-1.352 3.031-3.014 3.031zm-23.392 6.066-1.507-6.066h-8.479l-1.507 6.066h11.493zm24.396-49.531c0-0.558-0.45-1.01-1.004-1.01h-58.277c-0.554 0-1.005 0.452-1.005 1.01v33.357h60.286v-33.357zm0 35.38h-60.286v5.054c0 0.557 0.451 1.011 1.005 1.011h58.277c0.554 0 1.004-0.454 1.004-1.011v-5.054zm-29.138 4.043h-2.009c-0.555 0-1.005-0.452-1.005-1.011 0-0.558 0.45-1.011 1.005-1.011h2.009c0.555 0 1.005 0.453 1.005 1.011 0 0.559-0.45 1.011-1.005 1.011zm-26.124-36.39h50.239c0.554 0 1.004 0.361 1.004 0.809 0 0.446-0.45 0.809-1.004 0.809h-50.239c-0.555 0-1.005-0.363-1.005-0.809 0-0.448 0.45-0.809 1.005-0.809zm0 5.054h30.143c0.555 0 1.005 0.361 1.005 0.809 0 0.447-0.45 0.808-1.005 0.808h-30.143c-0.555 0-1.005-0.361-1.005-0.808 0-0.448 0.45-0.809 1.005-0.809zm-0.201 13.141c0.444 0 0.804 0.452 0.804 1.011v6.065c0 0.559-0.36 1.011-0.804 1.011s-0.804-0.452-0.804-1.011v-6.065c0-0.559 0.36-1.011 0.804-1.011zm5.024-2.021c0.444 0 0.804 0.451 0.804 1.01v8.087c0 0.559-0.36 1.011-0.804 1.011s-0.804-0.452-0.804-1.011v-8.087c0-0.559 0.36-1.01 0.804-1.01zm5.024-2.023c0.444 0 0.804 0.452 0.804 1.012v10.108c0 0.559-0.36 1.011-0.804 1.011s-0.804-0.452-0.804-1.011v-10.108c0-0.56 0.36-1.012 0.804-1.012zm5.024-2.021c0.444 0 0.804 0.452 0.804 1.01v12.131c0 0.559-0.36 1.011-0.804 1.011s-0.804-0.452-0.804-1.011v-12.131c0-0.558 0.36-1.01 0.804-1.01zm18.578-5.348c-0.181-0.192-0.291-0.456-0.291-0.716 0-0.275 0.11-0.527 0.291-0.718 0.371-0.375 1.055-0.375 1.427 0 0.18 0.191 0.291 0.443 0.291 0.718 0 0.271-0.111 0.524-0.291 0.716-0.191 0.182-0.453 0.293-0.714 0.293s-0.522-0.111-0.713-0.293zm4.019 0c-0.181-0.192-0.291-0.445-0.291-0.716 0-0.275 0.11-0.527 0.291-0.718 0.371-0.375 1.055-0.375 1.427 0 0.18 0.191 0.291 0.443 0.291 0.718 0 0.26-0.111 0.524-0.291 0.716-0.191 0.182-0.442 0.293-0.714 0.293-0.261 0-0.522-0.111-0.713-0.293zm4.019 0c-0.181-0.192-0.291-0.456-0.291-0.716 0-0.264 0.11-0.527 0.291-0.718 0.382-0.375 1.055-0.375 1.427 0 0.18 0.191 0.291 0.443 0.291 0.718 0 0.271-0.111 0.524-0.291 0.716-0.191 0.182-0.453 0.293-0.714 0.293s-0.522-0.111-0.713-0.293zm4.019 0c-0.181-0.192-0.291-0.445-0.291-0.716 0-0.275 0.11-0.527 0.291-0.718 0.372-0.365 1.045-0.375 1.427 0 0.18 0.191 0.291 0.454 0.291 0.718 0 0.26-0.111 0.524-0.291 0.716-0.191 0.182-0.452 0.293-0.713 0.293-0.262 0-0.523-0.111-0.714-0.293zm4.733 0.293c-0.262 0-0.523-0.111-0.714-0.293-0.181-0.192-0.291-0.456-0.291-0.716 0-0.264 0.11-0.527 0.291-0.718 0.372-0.375 1.055-0.375 1.427 0 0.181 0.191 0.291 0.454 0.291 0.718 0 0.26-0.11 0.524-0.291 0.716-0.191 0.182-0.452 0.293-0.713 0.293zm-22.105 7.076h22.105c0.554 0 1.004 0.362 1.004 0.809 0 0.446-0.45 0.808-1.004 0.808h-22.105c-0.555 0-1.005-0.362-1.005-0.808 0-0.447 0.45-0.809 1.005-0.809zm0 5.055h22.105c0.554 0 1.004 0.361 1.004 0.808 0 0.448-0.45 0.809-1.004 0.809h-22.105c-0.555 0-1.005-0.361-1.005-0.809 0-0.447 0.45-0.808 1.005-0.808zm0 5.054h10.047c0.555 0 1.005 0.361 1.005 0.808s-0.45 0.808-1.005 0.808h-10.047c-0.555 0-1.005-0.361-1.005-0.808s0.45-0.808 1.005-0.808zm14.78 0.293c0.18 0.191 0.291 0.455 0.291 0.718 0 0.262-0.111 0.525-0.291 0.717-0.191 0.182-0.453 0.294-0.714 0.294s-0.522-0.112-0.713-0.294c-0.181-0.192-0.291-0.446-0.291-0.717 0-0.274 0.11-0.527 0.291-0.718 0.372-0.374 1.045-0.374 1.427 0zm4.019 0c0.18 0.191 0.291 0.455 0.291 0.718 0 0.262-0.111 0.525-0.291 0.717-0.191 0.182-0.452 0.294-0.713 0.294-0.262 0-0.523-0.112-0.714-0.294-0.181-0.192-0.291-0.455-0.291-0.717 0-0.263 0.11-0.527 0.291-0.718 0.382-0.374 1.045-0.374 1.427 0zm4.019 0c0.181 0.191 0.291 0.455 0.291 0.718 0 0.262-0.11 0.525-0.291 0.717-0.191 0.182-0.452 0.294-0.713 0.294-0.262 0-0.523-0.112-0.714-0.294-0.181-0.192-0.291-0.455-0.291-0.717 0-0.263 0.11-0.527 0.291-0.718 0.382-0.374 1.055-0.374 1.427 0z" className="cls-web"/>
</svg>
