<?xml version="1.0" encoding="UTF-8" standalone="no" ?>
<!DOCTYPE svg PUBLIC "-//W3C//DTD SVG 1.1//EN" "http://www.w3.org/Graphics/SVG/1.1/DTD/svg11.dtd">
<svg xmlns="http://www.w3.org/2000/svg" xmlns:xlink="http://www.w3.org/1999/xlink" version="1.1" width="640" height="480" viewBox="0 0 640 480" xml:space="preserve">
<desc>Created with Fabric.js 3.6.6</desc>
<defs>
</defs>
<g transform="matrix(8.54 0 0 8.54 317.78 239.98)"  >
<path style="stroke: none; stroke-width: 1; stroke-dasharray: none; stroke-linecap: butt; stroke-dashoffset: 0; stroke-linejoin: miter; stroke-miterlimit: 4; fill: rgb(26,100,163); fill-rule: evenodd; opacity: 1;"  transform=" translate(-15.75, -28)" d="m 27.125 56 h -22.75 c -2.412 0 -4.375 -1.962 -4.375 -4.375 v -47.25 c 0 -2.412 1.963 -4.376 4.375 -4.376 h 22.75 c 2.412 0 4.375 1.964 4.375 4.376 v 47.25 c 0 2.413 -1.963 4.375 -4.375 4.375 z m 2.625 -51.625 c 0 -1.448 -1.178 -2.625 -2.625 -2.625 h -22.75 c -1.448 0 -2.625 1.177 -2.625 2.625 v 47.25 c 0 1.448 1.177 2.625 2.625 2.625 h 22.75 c 1.447 0 2.625 -1.177 2.625 -2.625 v -47.25 z m -2.625 42.875 h -22.75 c -0.483 0 -0.875 -0.392 -0.875 -0.876 v -38.5 c 0 -0.483 0.392 -0.875 0.875 -0.875 h 22.75 c 0.483 0 0.875 0.392 0.875 0.875 v 38.5 c 0 0.484 -0.392 0.876 -0.875 0.876 z m -0.875 -38.5 h -21 v 36.75 h 21 v -36.75 z m -18.995 16.883 l 6.985 -7.015 c 0.341 -0.344 0.895 -0.344 1.238 -0.003 c 0.342 0.341 0.343 0.895 0.002 1.238 l -6.985 7.014 c -0.171 0.172 -0.395 0.258 -0.62 0.258 c -0.223 0 -0.446 -0.085 -0.617 -0.255 c -0.343 -0.341 -0.344 -0.896 -0.003 -1.237 z m 8.241 -11.012 c -0.166 0.158 -0.394 0.253 -0.621 0.253 c -0.228 0 -0.455 -0.095 -0.621 -0.253 c -0.158 -0.166 -0.254 -0.385 -0.254 -0.622 c 0 -0.227 0.096 -0.454 0.254 -0.62 c 0.323 -0.324 0.918 -0.324 1.242 0 c 0.157 0.166 0.254 0.393 0.254 0.62 c 0 0.237 -0.097 0.456 -0.254 0.622 z m 1.383 -3.867 c 0.332 -0.325 0.918 -0.325 1.242 0 c 0.157 0.165 0.254 0.393 0.254 0.621 c 0 0.227 -0.097 0.455 -0.254 0.621 c -0.166 0.158 -0.394 0.254 -0.621 0.254 c -0.228 0 -0.455 -0.096 -0.621 -0.254 c -0.158 -0.166 -0.254 -0.394 -0.254 -0.621 c 0 -0.228 0.096 -0.456 0.254 -0.621 z m 0 5.25 c 0.332 -0.324 0.918 -0.324 1.242 0 c 0.157 0.166 0.254 0.393 0.254 0.621 s -0.097 0.455 -0.254 0.62 c -0.166 0.158 -0.394 0.254 -0.621 0.254 c -0.228 0 -0.455 -0.096 -0.621 -0.254 c -0.158 -0.165 -0.254 -0.392 -0.254 -0.62 s 0.096 -0.455 0.254 -0.621 z m 2.625 -2.625 c 0.323 -0.324 0.918 -0.324 1.242 0.008 c 0.157 0.158 0.254 0.385 0.254 0.612 c 0 0.228 -0.097 0.456 -0.254 0.622 c -0.166 0.158 -0.394 0.253 -0.621 0.253 c -0.228 0 -0.455 -0.095 -0.621 -0.253 c -0.158 -0.166 -0.254 -0.394 -0.254 -0.622 c 0 -0.227 0.096 -0.454 0.254 -0.62 z m 2.625 -2.625 c 0.323 -0.325 0.918 -0.325 1.242 0 c 0.157 0.165 0.254 0.393 0.254 0.621 c 0 0.227 -0.097 0.455 -0.254 0.621 c -0.166 0.158 -0.394 0.254 -0.621 0.254 c -0.228 0 -0.455 -0.096 -0.621 -0.254 c -0.158 -0.166 -0.254 -0.394 -0.254 -0.621 c 0 -0.228 0.096 -0.456 0.254 -0.621 z m -9.258 1.242 c -0.166 0.158 -0.394 0.254 -0.621 0.254 c -0.228 0 -0.455 -0.096 -0.621 -0.254 c -0.158 -0.166 -0.254 -0.394 -0.254 -0.621 c 0 -0.237 0.096 -0.456 0.254 -0.621 c 0.323 -0.325 0.909 -0.325 1.242 0 c 0.157 0.165 0.254 0.393 0.254 0.621 c 0 0.227 -0.097 0.455 -0.254 0.621 z m -5.615 8.386 l 4.375 -4.375 c 0.342 -0.343 0.896 -0.343 1.238 0 c 0.341 0.341 0.341 0.895 0 1.237 l -4.375 4.374 c -0.171 0.171 -0.395 0.257 -0.619 0.257 s -0.448 -0.086 -0.619 -0.257 c -0.342 -0.342 -0.342 -0.896 0 -1.236 z m 2.988 -5.764 l -1.75 1.751 c -0.171 0.17 -0.395 0.256 -0.619 0.256 s -0.448 -0.086 -0.619 -0.256 c -0.342 -0.342 -0.342 -0.896 0 -1.238 l 1.75 -1.749 c 0.342 -0.342 0.896 -0.342 1.238 0 c 0.341 0.34 0.341 0.894 0 1.236 z m 9.006 -9.368 h -3.5 c -0.483 0 -0.875 -0.392 -0.875 -0.875 s 0.392 -0.876 0.875 -0.876 h 3.5 c 0.483 0 0.875 0.393 0.875 0.876 s -0.392 0.875 -0.875 0.875 z m -6.379 -0.254 c -0.166 0.157 -0.394 0.254 -0.621 0.254 c -0.228 0 -0.455 -0.097 -0.621 -0.254 c -0.158 -0.166 -0.254 -0.394 -0.254 -0.621 c 0 -0.237 0.096 -0.456 0.254 -0.621 c 0.323 -0.325 0.909 -0.325 1.242 0 c 0.157 0.165 0.254 0.393 0.254 0.621 c 0 0.227 -0.097 0.455 -0.254 0.621 z m 2.879 43.128 c 1.448 0 2.625 1.178 2.625 2.625 c 0 1.448 -1.177 2.625 -2.625 2.625 s -2.625 -1.177 -2.625 -2.625 c 0 -1.447 1.177 -2.625 2.625 -2.625 z m 0 3.501 c 0.482 0 0.875 -0.393 0.875 -0.876 c 0 -0.482 -0.393 -0.874 -0.875 -0.874 s -0.875 0.392 -0.875 0.874 c 0 0.483 0.393 0.876 0.875 0.876 z" stroke-linecap="round" />
</g>
</svg>